<svg height="200" viewBox="0 0 200 200" width="200" xmlns="http://www.w3.org/2000/svg"><g fill="#34b0df" fill-rule="evenodd" transform="translate(8 9)"><path d="m47.9576979 18.7702667-41.21479999 17.8815 81.25919999 38.8949166 37.1260001-15.2425z"/><path d="m23.3990579 75.9304c0-1.2891667.6536-2.4873333 1.748-3.1925833 1.0792-.6976667 2.4472-.79625 3.6252-.2578334l38 18.9583334c1.3528.61425 2.2268 1.9640833 2.2268 3.4504166v37.9166667c0 1.289167-.6612 2.487333-1.7404 3.185-.6232.401917-1.3376.606667-2.0596.606667-.532 0-1.0792-.11375-1.5732-.34125l-38-18.958334c-1.3604-.61425-2.2268-1.971666-2.2268-3.450416zm-22.79999999 64.458333c0 1.509084.8968 2.874084 2.2876 3.473167l81.31239999 36.930833v-98.6439997l-83.59999999-39.9641666z"/><path d="m91.7990579 82.1510083v98.6439997l88.9124001-36.930833c1.3908-.599083 2.2876-1.964083 2.2876-3.473167v-98.2041663z"/><path d="m176.853698 36.6510083-83.5392001-36.24074997c-.9652-.42466666-2.0672-.42466666-3.0324 0l-33.4628 14.51449997 76.9652001 41.4201667z"/></g></svg>